<svg width="1280" height="720" xmlns="http://www.w3.org/2000/svg" xmlns:xlink="http://www.w3.org/1999/xlink" overflow="hidden"><g><rect x="0" y="0" width="1280" height="720" fill="#FFFFFF"/><rect x="43" y="194" width="1160" height="234" fill="#F2F2F2"/><text font-family="Calibri,Calibri_MSFontService,sans-serif" font-weight="700" font-size="24" transform="matrix(6.12323e-17 -1 1 6.12323e-17 74.3087 339)">Cloud</text><rect x="43" y="443" width="1160" height="212" fill="#F2F2F2"/><text font-family="Calibri,Calibri_MSFontService,sans-serif" font-weight="700" font-size="24" transform="matrix(6.12323e-17 -1 1 6.12323e-17 74.2337 607)">On</text><text font-family="Calibri,Calibri_MSFontService,sans-serif" font-weight="700" font-size="24" transform="matrix(6.12323e-17 -1 1 6.12323e-17 74.2337 578)">-</text><text font-family="Calibri,Calibri_MSFontService,sans-serif" font-weight="700" font-size="24" transform="matrix(6.12323e-17 -1 1 6.12323e-17 74.2337 571)">Premise</text><rect x="169" y="246" width="164" height="69" fill="#FDE70E"/><text font-family="Calibri,Calibri_MSFontService,sans-serif" font-weight="700" font-size="21.3333" transform="translate(208.999 288)">Camunda</text><rect x="353" y="246" width="164" height="69" fill="#FDE70E"/><text font-family="Calibri,Calibri_MSFontService,sans-serif" font-weight="700" font-size="21.3333" transform="translate(418.165 288)">n8n</text><rect x="541" y="246" width="164" height="69" fill="#FDE70E"/><text font-family="Calibri,Calibri_MSFontService,sans-serif" font-weight="700" font-size="21.3333" transform="translate(594.662 275)">Power</text><text font-family="Calibri,Calibri_MSFontService,sans-serif" font-weight="700" font-size="21.3333" transform="translate(578.635 301)">Automate</text><rect x="169" y="335" width="164" height="68" fill="#FDE70E"/><text font-family="Calibri,Calibri_MSFontService,sans-serif" font-weight="700" font-size="21.3333" transform="translate(230.082 376)">CRM</text><rect x="169" y="515" width="164" height="69" fill="#FDE70E"/><text font-family="Calibri,Calibri_MSFontService,sans-serif" font-weight="700" font-size="21.3333" transform="translate(178.959 556)">NGROK / Traefik</text><rect x="357" y="515" width="164" height="68" fill="#FDE70E"/><text font-family="Calibri,Calibri_MSFontService,sans-serif" font-weight="700" font-size="21.3333" transform="translate(381.163 556)">HUE Rest API</text><rect x="353" y="333" width="352" height="69" fill="#FDE70E"/><text font-family="Calibri,Calibri_MSFontService,sans-serif" font-weight="700" font-size="21.3333" transform="translate(426.77 375)">ERP / Ready2Order API</text><rect x="543" y="515" width="165" height="68" fill="#FDE70E"/><text font-family="Calibri,Calibri_MSFontService,sans-serif" font-weight="700" font-size="21.3333" transform="translate(595.982 556)">G1 API</text></g></svg>